<svg xmlns="http://www.w3.org/2000/svg" width="776" height="842" viewBox="0 0 776 842"><rect width="776" height="842" fill="#1c1924"/><text x="28" y="44" font-size="15" font-weight="600" fill="#d8d4e3" font-family="system-ui, sans-serif">Navigate</text>
<rect x="32" y="62" width="112" height="102" rx="8" fill="#2a2635"/>
<g transform="translate(61,74) scale(3)" fill="none" stroke="#d8d4e3" stroke-width="1.4" stroke-linecap="round" stroke-linejoin="round"><path d="M4 9.5V3.4c0-.5.4-.9.9-.9H9.5l3.5 3.5v3.5"/><path d="M9.5 2.5V6H13"/><path d="M4 9.5v4.6c0 .5.4.9.9.9h3.6" stroke-dasharray="1.8 1.6"/><path d="M13 10a4 4 0 0 1-3 4.6"/><path d="M9 12.6l1 2 2.1-.7"/></g>
<text x="88" y="150" font-size="13" font-weight="500" fill="#d8d4e3" text-anchor="middle" font-family="system-ui, sans-serif">Flip</text>
<rect x="152" y="62" width="112" height="102" rx="8" fill="#2a2635"/>
<g transform="translate(181,74) scale(3)" fill="none" stroke="#d8d4e3" stroke-width="1.5" stroke-linecap="round"><circle cx="8" cy="8" r="5"/><line x1="12" y1="12" x2="15.5" y2="15.5"/><line x1="8" y1="6" x2="8" y2="10"/><line x1="6" y1="8" x2="10" y2="8"/></g>
<text x="208" y="150" font-size="13" font-weight="500" fill="#d8d4e3" text-anchor="middle" font-family="system-ui, sans-serif">Zoom Page</text>
<rect x="272" y="62" width="112" height="102" rx="8" fill="#2a2635"/>
<g transform="translate(301,74) scale(3)" fill="none" stroke="#d8d4e3" stroke-width="1.5" stroke-linecap="round" stroke-linejoin="round"><path d="M3.5 2.5v11l2.8-2.8 1.8 4.3 1.4-.6-1.8-4.3L13 10z" fill="#d8d4e3" opacity="0.15"/><path d="M3.5 2.5v11l2.8-2.8 1.8 4.3 1.4-.6-1.8-4.3L13 10z"/></g>
<text x="328" y="150" font-size="13" font-weight="500" fill="#d8d4e3" text-anchor="middle" font-family="system-ui, sans-serif">Select</text>
<text x="28" y="204" font-size="15" font-weight="600" fill="#d8d4e3" font-family="system-ui, sans-serif">Shapes</text>
<rect x="32" y="222" width="112" height="102" rx="8" fill="#2a2635"/>
<g transform="translate(61,234) scale(3)" fill="none" stroke="#d8d4e3" stroke-width="1.5" stroke-linejoin="miter"><rect x="2.5" y="4.5" width="13" height="9"/></g>
<text x="88" y="310" font-size="13" font-weight="500" fill="#d8d4e3" text-anchor="middle" font-family="system-ui, sans-serif">Rectangle</text>
<rect x="152" y="222" width="112" height="102" rx="8" fill="#2a2635"/>
<g transform="translate(181,234) scale(3)" fill="none" stroke="#d8d4e3" stroke-width="1.5"><ellipse cx="9" cy="9" rx="6.5" ry="4.5"/></g>
<text x="208" y="310" font-size="13" font-weight="500" fill="#d8d4e3" text-anchor="middle" font-family="system-ui, sans-serif">Ellipse</text>
<rect x="272" y="222" width="112" height="102" rx="8" fill="#2a2635"/>
<g transform="translate(301,234) scale(3)" fill="none" stroke="#d8d4e3" stroke-width="1.4" stroke-linejoin="miter"><polygon points="3,6 10.5,2.5 15.5,8 12.5,15.5 4.5,13"/><circle cx="3" cy="6" r="1.2" fill="#d8d4e3" stroke="none"/><circle cx="10.5" cy="2.5" r="1.2" fill="#d8d4e3" stroke="none"/><circle cx="15.5" cy="8" r="1.2" fill="#d8d4e3" stroke="none"/><circle cx="12.5" cy="15.5" r="1.2" fill="#d8d4e3" stroke="none"/><circle cx="4.5" cy="13" r="1.2" fill="#d8d4e3" stroke="none"/></g>
<text x="328" y="310" font-size="13" font-weight="500" fill="#d8d4e3" text-anchor="middle" font-family="system-ui, sans-serif">Polygon</text>
<rect x="392" y="222" width="112" height="102" rx="8" fill="#2a2635"/>
<g transform="translate(421,234) scale(3)" fill="none" stroke="#d8d4e3" stroke-width="1.5" stroke-linecap="round"><line x1="3.5" y1="14.5" x2="14.5" y2="3.5"/><circle cx="3.5" cy="14.5" r="1.5" fill="#d8d4e3" stroke="none"/><circle cx="14.5" cy="3.5" r="1.5" fill="#d8d4e3" stroke="none"/></g>
<text x="448" y="310" font-size="13" font-weight="500" fill="#d8d4e3" text-anchor="middle" font-family="system-ui, sans-serif">Line</text>
<rect x="512" y="222" width="112" height="102" rx="8" fill="#2a2635"/>
<g transform="translate(541,234) scale(3)" fill="none" stroke="#d8d4e3" stroke-width="1.5" stroke-linecap="round" stroke-linejoin="round"><polyline points="2.5,14 6,7 10.5,10.5 15.5,4"/><circle cx="2.5" cy="14" r="1.2" fill="#d8d4e3" stroke="none"/><circle cx="6" cy="7" r="1.2" fill="#d8d4e3" stroke="none"/><circle cx="10.5" cy="10.5" r="1.2" fill="#d8d4e3" stroke="none"/><circle cx="15.5" cy="4" r="1.2" fill="#d8d4e3" stroke="none"/></g>
<text x="568" y="310" font-size="13" font-weight="500" fill="#d8d4e3" text-anchor="middle" font-family="system-ui, sans-serif">Polyline</text>
<rect x="632" y="222" width="112" height="102" rx="8" fill="#2a2635"/>
<g transform="translate(661,234) scale(3)" fill="none" stroke="#d8d4e3" stroke-width="1.4" stroke-linecap="round" stroke-linejoin="round"><path d="M10 2.5l5.5 5.5-4.5 4.5L5.5 7z"/><path d="M5.5 7l5.5 5.5-2.2 1.7-3.6-0.4-1-2.6z" fill="#f5c542" stroke="#c9a227"/><line x1="2.5" y1="16.3" x2="12" y2="16.3" stroke="#f5c542" stroke-width="2.4"/></g>
<text x="688" y="310" font-size="13" font-weight="500" fill="#d8d4e3" text-anchor="middle" font-family="system-ui, sans-serif">Highlight</text>
<text x="28" y="364" font-size="15" font-weight="600" fill="#d8d4e3" font-family="system-ui, sans-serif">Annotation</text>
<rect x="32" y="382" width="112" height="102" rx="8" fill="#2a2635"/>
<g transform="translate(61,394) scale(3)" fill="none" stroke="#d8d4e3" stroke-width="1.4" stroke-linejoin="miter"><path d="M5.5 3.5H3.5v11h2"/><path d="M12.5 3.5h2v11h-2"/><text x="9" y="12.4" text-anchor="middle" font-size="9.5" font-family="Georgia, 'Times New Roman', serif" fill="#d8d4e3" stroke="none">T</text></g>
<text x="88" y="470" font-size="13" font-weight="500" fill="#d8d4e3" text-anchor="middle" font-family="system-ui, sans-serif">Text</text>
<rect x="152" y="382" width="112" height="102" rx="8" fill="#2a2635"/>
<g transform="translate(181,394) scale(3)" fill="none" stroke="#d8d4e3" stroke-width="1.4" stroke-linecap="round" stroke-linejoin="miter"><rect x="7.5" y="2.5" width="8.5" height="6.5"/><line x1="7.2" y1="7.6" x2="3.2" y2="13.6"/><path d="M3.2 13.6l.5-3M3.2 13.6l3-.6" fill="none"/></g>
<text x="208" y="470" font-size="13" font-weight="500" fill="#d8d4e3" text-anchor="middle" font-family="system-ui, sans-serif">Callout</text>
<rect x="272" y="382" width="112" height="102" rx="8" fill="#2a2635"/>
<g transform="translate(301,394) scale(3)" fill="none" stroke="#d8d4e3" stroke-width="1.5" stroke-linecap="round" stroke-linejoin="round"><path d="M3 2.5h10v10L9 16H3z"/><path d="M13 12.5l-4 3.5V12.5h4z" fill="#d8d4e3" opacity="0.2"/><line x1="6" y1="7" x2="11" y2="7"/><line x1="6" y1="9.5" x2="9" y2="9.5"/></g>
<text x="328" y="470" font-size="13" font-weight="500" fill="#d8d4e3" text-anchor="middle" font-family="system-ui, sans-serif">Sticky</text>
<text x="28" y="524" font-size="15" font-weight="600" fill="#d8d4e3" font-family="system-ui, sans-serif">Measure</text>
<rect x="32" y="542" width="112" height="102" rx="8" fill="#2a2635"/>
<g transform="translate(61,554) scale(3)" fill="none" stroke="#d8d4e3" stroke-width="1.4" stroke-linecap="round" stroke-linejoin="round"><line x1="2.5" y1="13.5" x2="15.5" y2="13.5"/><line x1="2.5" y1="11.5" x2="2.5" y2="13.5"/><line x1="5.5" y1="12" x2="5.5" y2="13.5"/><line x1="8.5" y1="11" x2="8.5" y2="13.5"/><line x1="11.5" y1="12" x2="11.5" y2="13.5"/><line x1="14.5" y1="11.5" x2="14.5" y2="13.5"/><line x1="3.5" y1="5.5" x2="14.5" y2="5.5"/><polyline points="5.5,3.5 3.5,5.5 5.5,7.5"/><polyline points="12.5,3.5 14.5,5.5 12.5,7.5"/></g>
<text x="88" y="630" font-size="13" font-weight="500" fill="#d8d4e3" text-anchor="middle" font-family="system-ui, sans-serif">Calibrate</text>
<rect x="152" y="542" width="112" height="102" rx="8" fill="#2a2635"/>
<g transform="translate(181,554) scale(3)" fill="none" stroke="#d8d4e3" stroke-width="1.4" stroke-linecap="round" stroke-linejoin="round"><line x1="3" y1="9" x2="15" y2="9"/><polyline points="5.5,6.5 3,9 5.5,11.5"/><polyline points="12.5,6.5 15,9 12.5,11.5"/><line x1="3" y1="5" x2="3" y2="13"/><line x1="15" y1="5" x2="15" y2="13"/></g>
<text x="208" y="630" font-size="13" font-weight="500" fill="#d8d4e3" text-anchor="middle" font-family="system-ui, sans-serif">Dimension</text>
<rect x="272" y="542" width="112" height="102" rx="8" fill="#2a2635"/>
<g transform="translate(301,554) scale(3)" fill="none" stroke="#d8d4e3" stroke-width="1.5" stroke-linecap="round" stroke-linejoin="round"><polyline points="2.5,14 6.5,6.5 11,10.5 15.5,4.5"/><circle cx="2.5" cy="14" r="1.5" fill="#d8d4e3" stroke="none"/><circle cx="15.5" cy="4.5" r="1.5" fill="#d8d4e3" stroke="none"/></g>
<text x="328" y="630" font-size="13" font-weight="500" fill="#d8d4e3" text-anchor="middle" font-family="system-ui, sans-serif">Polyline Length</text>
<rect x="392" y="542" width="112" height="102" rx="8" fill="#2a2635"/>
<g transform="translate(421,554) scale(3)" fill="none" stroke="#d8d4e3" stroke-width="1.4" stroke-linejoin="miter"><polygon points="10.8,2.2 16,8.6 11.5,15.5 3.6,13.4 3.1,5.2"/><path d="M5.2 9.8L10.4 4.6M5.8 12.6L13.2 5.2M9 14.4L14.2 9.2" stroke-width="1" opacity="0.65"/></g>
<text x="448" y="630" font-size="13" font-weight="500" fill="#d8d4e3" text-anchor="middle" font-family="system-ui, sans-serif">Area</text>
<rect x="512" y="542" width="112" height="102" rx="8" fill="#2a2635"/>
<g transform="translate(541,554) scale(3)" fill="none" stroke="#d8d4e3" stroke-width="1.4" stroke-linecap="round" stroke-linejoin="round"><line x1="4" y1="14.5" x2="4" y2="3"/><line x1="4" y1="14.5" x2="15.5" y2="14.5"/><path d="M4 8.5A6 6 0 0 1 10 14.5" fill="none"/><polyline points="2.8,10 4,8.3 5.7,9.3"/><circle cx="4" cy="14.5" r="1.2" fill="#d8d4e3" stroke="none"/></g>
<text x="568" y="630" font-size="13" font-weight="500" fill="#d8d4e3" text-anchor="middle" font-family="system-ui, sans-serif">Angle</text>
<text x="28" y="684" font-size="15" font-weight="600" fill="#d8d4e3" font-family="system-ui, sans-serif">Tools</text>
<rect x="32" y="702" width="112" height="102" rx="8" fill="#2a2635"/>
<g transform="translate(61,714) scale(3)" fill="none" stroke="#d8d4e3" stroke-width="1.3" stroke-linecap="round" stroke-linejoin="round"><rect x="2.5" y="2.5" width="10" height="8" stroke-dasharray="2 1.6"/><circle cx="10.6" cy="15" r="1.5"/><circle cx="14.8" cy="12.6" r="1.5"/><line x1="11.7" y1="13.9" x2="14.5" y2="8.5"/><line x1="13.6" y1="11.7" x2="9" y2="8.5"/></g>
<text x="88" y="790" font-size="13" font-weight="500" fill="#d8d4e3" text-anchor="middle" font-family="system-ui, sans-serif">Snip</text>
<rect x="152" y="702" width="112" height="102" rx="8" fill="#2a2635"/>
<g transform="translate(181,714) scale(3)" fill="none" stroke="#d8d4e3" stroke-width="1.5" stroke-linecap="round" stroke-linejoin="round"><rect x="2.5" y="2.5" width="8" height="10" rx="1"/><rect x="7.5" y="5.5" width="8" height="10" rx="1" fill="#d8d4e3" opacity="0.15"/><rect x="7.5" y="5.5" width="8" height="10" rx="1"/></g>
<text x="208" y="790" font-size="13" font-weight="500" fill="#d8d4e3" text-anchor="middle" font-family="system-ui, sans-serif">Overlay</text></svg>