<svg viewBox="0 0 900 640" xmlns="http://www.w3.org/2000/svg" font-family="ui-monospace, 'SF Mono', Menlo, Consolas, monospace">
  <defs>
    <linearGradient id="rail" x1="0" y1="0" x2="0" y2="1">
      <stop offset="0" stop-color="#41468f"/>
      <stop offset="1" stop-color="#262a58"/>
    </linearGradient>
    <linearGradient id="accent" x1="0" y1="0" x2="1" y2="1">
      <stop offset="0" stop-color="#6577f7"/>
      <stop offset="1" stop-color="#4c5fe6"/>
    </linearGradient>
  </defs>

  <!-- backdrop card -->
  <rect x="0" y="0" width="900" height="640" rx="18" fill="#eef0f8"/>

  <!-- ── app window ─────────────────────────────────────────────────── -->
  <rect x="30" y="24" width="840" height="520" rx="16" fill="#171a3a"/>

  <!-- menubar -->
  <rect x="46" y="38" width="22" height="22" rx="7" fill="url(#accent)"/>
  <text x="80" y="53" font-size="12" fill="#a9adde">File  Edit  View  Help</text>
  <rect x="360" y="36" width="180" height="26" rx="9" fill="#262b58" stroke="#3b4180"/>
  <text x="450" y="53" font-size="11" fill="#e8eafb" text-anchor="middle">Drawings.pdf ●</text>
  <rect x="792" y="36" width="62" height="26" rx="9" fill="url(#accent)"/>
  <text x="823" y="53" font-size="11" fill="#ffffff" text-anchor="middle" font-weight="bold">Save</text>
  <circle cx="60" cy="80" r="9" fill="#4c5fe6"/><text x="60" y="84" font-size="11" fill="#fff" text-anchor="middle">1</text>

  <!-- canvas -->
  <rect x="42" y="94" width="816" height="408" rx="10" fill="#dcdfec"/>

  <!-- paper sheet with drawing -->
  <rect x="270" y="200" width="380" height="270" fill="#ffffff" stroke="#c9cede"/>
  <g stroke="#3a3f55" stroke-width="1.4" fill="none">
    <rect x="300" y="230" width="150" height="90"/>
    <rect x="470" y="230" width="150" height="140"/>
    <path d="M300 350 h150 v60 h-150 z"/>
  </g>
  <!-- blue area markup -->
  <rect x="470" y="230" width="150" height="140" fill="#2f6fe0" fill-opacity="0.13" stroke="#2f6fe0" stroke-width="1.6" stroke-dasharray="5 3"/>
  <g fill="#ffffff" stroke="#2f6fe0" stroke-width="1.4">
    <rect x="465" y="225" width="9" height="9"/><rect x="615" y="225" width="9" height="9"/>
    <rect x="465" y="365" width="9" height="9"/><rect x="615" y="365" width="9" height="9"/>
  </g>
  <rect x="512" y="292" width="66" height="18" rx="4" fill="#2f6fe0"/>
  <text x="545" y="305" font-size="10.5" fill="#fff" text-anchor="middle">47.0 m²</text>
  <!-- dimension -->
  <g stroke="#c02020" stroke-width="1.2" fill="none">
    <line x1="300" y1="430" x2="450" y2="430"/>
    <line x1="300" y1="415" x2="300" y2="438"/><line x1="450" y1="415" x2="450" y2="438"/>
    <line x1="294" y1="436" x2="306" y2="424"/><line x1="444" y1="436" x2="456" y2="424"/>
  </g>
  <text x="375" y="424" font-size="10.5" fill="#c02020" text-anchor="middle">12'-6"</text>
  <circle cx="655" cy="475" r="9" fill="#4c5fe6"/><text x="655" y="479" font-size="11" fill="#fff" text-anchor="middle">2</text>

  <!-- glass ribbon -->
  <g>
    <rect x="52" y="104" width="796" height="56" rx="13" fill="#20255a" fill-opacity="0.82" stroke="#ffffff" stroke-opacity="0.25"/>
    <line x1="52" y1="105" x2="848" y2="105" stroke="#ffffff" stroke-opacity="0.35"/>
    <text x="70" y="122" font-size="8.5" fill="#8b90c5" letter-spacing="1.5">NAVIGATE</text>
    <text x="185" y="122" font-size="8.5" fill="#8b90c5" letter-spacing="1.5">SHAPES</text>
    <text x="342" y="122" font-size="8.5" fill="#8b90c5" letter-spacing="1.5">ANNOTATE</text>
    <text x="440" y="122" font-size="8.5" fill="#8b90c5" letter-spacing="1.5">MEASURE</text>
    <text x="540" y="122" font-size="8.5" fill="#8b90c5" letter-spacing="1.5">EDIT</text>
    <text x="620" y="122" font-size="8.5" fill="#8b90c5" letter-spacing="1.5">TEXT·WEIGHT·STYLE·SCALE</text>
    <g fill="none" stroke="#c3c6ee" stroke-width="1.4">
      <rect x="70" y="132" width="16" height="14" rx="2"/>
      <circle cx="112" cy="139" r="7"/>
      <path d="M138 146 l7 -14 l7 14"/>
      <rect x="185" y="132" width="17" height="13"/>
      <ellipse cx="228" cy="139" rx="9" ry="6.5"/>
      <path d="M252 146 l6 -13 l9 3 l-2 10 z"/>
      <line x1="285" y1="146" x2="300" y2="132"/>
      <path d="M318 145 l6 -11 l6 6 l7 -9"/>
      <rect x="342" y="132" width="15" height="14"/><text x="349" y="143" font-size="9" fill="#c3c6ee" text-anchor="middle" stroke="none">T</text>
      <path d="M378 132 h16 v9 h-9 l-7 6 z"/>
      <path d="M440 145 l7 -13 l7 13"/>
      <path d="M468 133 v12 h14"/>
      <path d="M498 145 a10 10 0 0 1 5 -11"/>
      <rect x="540" y="132" width="12" height="12" rx="2"/><rect x="546" y="137" width="12" height="12" rx="2" fill="#20255a"/>
      <rect x="578" y="133" width="13" height="11" stroke-dasharray="3 2"/>
    </g>
    <rect x="622" y="130" width="34" height="18" rx="5" fill="#262b58" stroke="#3b4180"/>
    <rect x="662" y="130" width="34" height="18" rx="5" fill="#262b58" stroke="#3b4180"/>
    <rect x="702" y="130" width="46" height="18" rx="5" fill="#262b58" stroke="#3b4180"/>
    <rect x="756" y="130" width="26" height="18" rx="5" fill="#002060" stroke="#3b4180"/>
    <rect x="788" y="130" width="26" height="18" rx="5" fill="#ffffff" stroke="#3b4180"/>
    <rect x="820" y="130" width="26" height="18" rx="5" fill="#002060" stroke="#3b4180"/>
  </g>
  <circle cx="875" cy="132" r="9" fill="#4c5fe6"/><text x="875" y="136" font-size="11" fill="#fff" text-anchor="middle">3</text>

  <!-- violet rail -->
  <rect x="52" y="172" width="120" height="318" rx="13" fill="url(#rail)" fill-opacity="0.88" stroke="#ffffff" stroke-opacity="0.22"/>
  <rect x="62" y="182" width="100" height="18" rx="9" fill="#0b0e24" fill-opacity="0.35"/>
  <rect x="112" y="184" width="48" height="14" rx="7" fill="#ffffff"/>
  <text x="86" y="194" font-size="7.5" fill="#c3c6ee" text-anchor="middle">Marks</text>
  <text x="136" y="194" font-size="7.5" fill="#1d2150" text-anchor="middle" font-weight="bold">Thumbs</text>
  <g>
    <rect x="64" y="210" width="96" height="72" rx="8" fill="#ffffff"/>
    <rect x="72" y="218" width="80" height="46" fill="#eceef8"/>
    <rect x="86" y="266" width="52" height="11" rx="5.5" fill="#4c5fe6"/>
    <text x="112" y="274.5" font-size="7.5" fill="#fff" text-anchor="middle">Page 6</text>
    <rect x="64" y="292" width="96" height="72" rx="8" fill="#ffffff" opacity="0.85"/>
    <rect x="72" y="300" width="80" height="46" fill="#eceef8"/>
    <rect x="86" y="348" width="52" height="11" rx="5.5" fill="#1d2150" opacity="0.75"/>
    <text x="112" y="356.5" font-size="7.5" fill="#fff" text-anchor="middle">Page 7</text>
    <rect x="64" y="374" width="96" height="72" rx="8" fill="#ffffff" opacity="0.7"/>
    <rect x="72" y="382" width="80" height="46" fill="#eceef8"/>
  </g>
  <circle cx="112" cy="472" r="9" fill="#4c5fe6"/><text x="112" y="476" font-size="11" fill="#fff" text-anchor="middle">4</text>

  <!-- light glass inspector -->
  <rect x="700" y="172" width="148" height="318" rx="13" fill="#fafbff" fill-opacity="0.82" stroke="#ffffff"/>
  <rect x="710" y="182" width="128" height="34" rx="9" fill="#1d2150"/>
  <rect x="716" y="189" width="20" height="20" rx="5" fill="#4c5fe6"/>
  <text x="744" y="197" font-size="9" fill="#ffffff" font-weight="bold">Rectangle</text>
  <text x="744" y="209" font-size="7" fill="#a9adde" letter-spacing="1">PAGE 6</text>
  <text x="714" y="234" font-size="7.5" fill="#979cc4" letter-spacing="1.5">APPEARANCE</text>
  <text x="714" y="252" font-size="9" fill="#5c618f">Line</text>
  <rect x="796" y="243" width="34" height="13" rx="4" fill="#2f6fe0"/>
  <text x="714" y="272" font-size="9" fill="#5c618f">Infill</text>
  <rect x="796" y="263" width="34" height="13" rx="4" fill="#2f6fe0" fill-opacity="0.25" stroke="#c9cede"/>
  <text x="714" y="292" font-size="9" fill="#5c618f">Text</text>
  <rect x="796" y="283" width="34" height="13" rx="4" fill="#c02020"/>
  <text x="714" y="312" font-size="9" fill="#5c618f">Weight</text>
  <rect x="796" y="303" width="34" height="13" rx="4" fill="#1d2150"/>
  <text x="813" y="313" font-size="8" fill="#fff" text-anchor="middle">1pt</text>
  <line x1="712" y1="330" x2="836" y2="330" stroke="#e3e6f2"/>
  <text x="714" y="348" font-size="7.5" fill="#979cc4" letter-spacing="1.5">TOTALS</text>
  <text x="714" y="364" font-size="8.5" fill="#5c618f">Linear: 38'-2"</text>
  <text x="714" y="378" font-size="8.5" fill="#5c618f">Area: 506 sq ft</text>
  <line x1="712" y1="392" x2="836" y2="392" stroke="#e3e6f2"/>
  <text x="714" y="410" font-size="7.5" fill="#979cc4" letter-spacing="1.5">MARKUPS</text>
  <rect x="710" y="418" width="128" height="18" rx="6" fill="#1d2150"/>
  <circle cx="720" cy="427" r="3.5" fill="#2f6fe0"/>
  <text x="729" y="430" font-size="8.5" fill="#ffffff">rectangle</text>
  <text x="832" y="430" font-size="8" fill="#a9adde" text-anchor="end">47…m²</text>
  <circle cx="720" cy="447" r="3.5" fill="#c02020"/>
  <text x="729" y="450" font-size="8.5" fill="#5c618f">dimension</text>
  <text x="832" y="450" font-size="8" fill="#979cc4" text-anchor="end">12…6"</text>
  <circle cx="774" cy="472" r="9" fill="#4c5fe6"/><text x="774" y="476" font-size="11" fill="#fff" text-anchor="middle">5</text>

  <!-- canvas hud -->
  <g>
    <rect x="290" y="480" width="92" height="20" rx="10" fill="#171a3a" fill-opacity="0.85" stroke="#ffffff" stroke-opacity="0.3"/>
    <text x="336" y="493.5" font-size="9" fill="#e8eafb" text-anchor="middle">Scale: 1:100</text>
    <rect x="390" y="480" width="86" height="20" rx="10" fill="#171a3a" fill-opacity="0.85" stroke="#ffffff" stroke-opacity="0.3"/>
    <text x="433" y="493.5" font-size="9" fill="#e8eafb" text-anchor="middle">‹  6 / 48  ›</text>
    <rect x="484" y="480" width="106" height="20" rx="10" fill="#171a3a" fill-opacity="0.85" stroke="#ffffff" stroke-opacity="0.3"/>
    <text x="537" y="493.5" font-size="9" fill="#e8eafb" text-anchor="middle">Fit  −  100%  +</text>
  </g>
  <circle cx="612" cy="490" r="9" fill="#4c5fe6"/><text x="612" y="494" font-size="11" fill="#fff" text-anchor="middle">6</text>

  <!-- status bar -->
  <text x="52" y="527" font-size="9.5" fill="#7176ad">Tool: Select · Calibration: 1:100 · Cursor: 677, 471 pt · Markups: 5 · Sheet: 2384×1684 pt</text>
  <circle cx="620" cy="523" r="9" fill="#4c5fe6"/><text x="620" y="527" font-size="11" fill="#fff" text-anchor="middle">7</text>

  <!-- ── legend ─────────────────────────────────────────────────────── -->
  <g font-size="12" fill="#1d2150">
    <circle cx="52" cy="572" r="9" fill="#4c5fe6"/><text x="52" y="576" font-size="11" fill="#fff" text-anchor="middle">1</text>
    <text x="68" y="576">Menu bar — menus, file chip, Save</text>
    <circle cx="52" cy="600" r="9" fill="#4c5fe6"/><text x="52" y="604" font-size="11" fill="#fff" text-anchor="middle">2</text>
    <text x="68" y="604">Canvas — PDF scrolls under the glass</text>
    <circle cx="52" cy="628" r="9" fill="#4c5fe6"/><text x="52" y="632" font-size="11" fill="#fff" text-anchor="middle">3</text>
    <text x="68" y="632">Glass ribbon — tools &amp; page defaults</text>
    <circle cx="472" cy="572" r="9" fill="#4c5fe6"/><text x="472" y="576" font-size="11" fill="#fff" text-anchor="middle">4</text>
    <text x="488" y="576">Document rail — thumbnails &amp; bookmarks</text>
    <circle cx="472" cy="600" r="9" fill="#4c5fe6"/><text x="472" y="604" font-size="11" fill="#fff" text-anchor="middle">5</text>
    <text x="488" y="604">Inspector — properties, totals, markups list</text>
    <circle cx="472" cy="628" r="9" fill="#4c5fe6"/><text x="472" y="632" font-size="11" fill="#fff" text-anchor="middle">6</text>
    <text x="488" y="632">Canvas HUD (scale · page · zoom)  ⑦ Status bar</text>
  </g>
</svg>
